<svg xmlns="http://www.w3.org/2000/svg" width="32.168" height="23.276" viewBox="0 0 32.168 23.276">
  <path id="right-arrow" d="M20.506,23.775a3.248,3.248,0,0,1-1.217-.237,3.058,3.058,0,0,1-1.948-2.83V18.072a1.257,1.257,0,0,1,2.513,0v2.636a.6.6,0,0,0,.4.566.636.636,0,0,0,.7-.131l8.335-8.137a1.21,1.21,0,0,0,0-1.738L20.953,3.132A.636.636,0,0,0,20.25,3a.6.6,0,0,0-.4.566v7.406a2.485,2.485,0,0,1-2.513,2.451H1.257a1.226,1.226,0,1,1,0-2.451H17.341V3.567A3.058,3.058,0,0,1,19.289.737a3.206,3.206,0,0,1,3.442.663l8.335,8.137a3.621,3.621,0,0,1,0,5.2l-8.335,8.137a3.181,3.181,0,0,1-2.224.9Zm0,0" transform="translate(0 -0.5)" fill="#fff"/>
</svg>
